<?xml version="1.0" encoding="utf-8"?>
<!-- Generator: Adobe Illustrator 27.7.0, SVG Export Plug-In . SVG Version: 6.00 Build 0)  -->
<svg version="1.1" id="Layer_1" xmlns="http://www.w3.org/2000/svg" xmlns:xlink="http://www.w3.org/1999/xlink" x="0px" y="0px"
	 viewBox="0 0 413 261" style="enable-background:new 0 0 413 261;" xml:space="preserve">
<style type="text/css">
	.st0{fill:#263238;}
	.st1{fill:#F0F0F0;}
	.st2{fill:#7E57C2;}
	.st3{fill:#FFFFFF;}
	.st4{opacity:0.4;fill:#7E57C2;enable-background:new    ;}
	.st5{opacity:0.1;enable-background:new    ;}
	.st6{fill:#BC8866;}
	.st7{opacity:0.3;enable-background:new    ;}
	.st8{fill:#7F3E3B;}
	.st9{opacity:0.2;enable-background:new    ;}
	.st10{fill:#A57155;}
</style>
<g id="freepik--Window--inject-32">
	<path class="st0" d="M5,10.7c0-3.5,2.8-6.3,6.3-6.3h280.2c3.5,0,6.3,2.8,6.3,6.3v20.2H5V10.7z"/>
	<path class="st1" d="M55.8,23c-2.9,0-5.3-2.4-5.3-5.3s2.4-5.3,5.3-5.3s5.3,2.4,5.3,5.3S58.7,23,55.8,23L55.8,23z M55.8,13.5
		c-2.3,0-4.2,1.9-4.2,4.2c0,2.3,1.9,4.2,4.2,4.2c2.3,0,4.2-1.9,4.2-4.2C60,15.4,58.1,13.5,55.8,13.5z"/>
	<path class="st1" d="M38.9,23c-2.9,0-5.3-2.4-5.3-5.3s2.4-5.3,5.3-5.3s5.3,2.4,5.3,5.3C44.3,20.6,41.9,23,38.9,23L38.9,23z
		 M38.9,13.5c-2.3,0-4.2,1.9-4.2,4.2c0,2.3,1.9,4.2,4.2,4.2c2.3,0,4.2-1.9,4.2-4.2C43.1,15.4,41.3,13.5,38.9,13.5z"/>
	<path class="st1" d="M22.1,23c-2.9,0-5.3-2.4-5.3-5.3s2.4-5.3,5.3-5.3s5.3,2.4,5.3,5.3C27.4,20.6,25.1,23,22.1,23L22.1,23z
		 M22.1,13.5c-2.3,0-4.2,1.9-4.2,4.2c0,2.3,1.9,4.2,4.2,4.2c2.3,0,4.2-1.9,4.2-4.2C26.3,15.4,24.4,13.5,22.1,13.5z"/>
	<path class="st2" d="M291.5,223.8H11.3c-3.5,0-6.3-2.8-6.3-6.3V30.9h292.8v186.6C297.8,221,295,223.8,291.5,223.8z"/>
	<rect x="6.8" y="36.3" class="st3" width="289.2" height="165.3"/>
	<path class="st2" d="M24.8,50.5H135c2.1,0,3.8,1.7,3.8,3.8V69c0,2.1-1.7,3.8-3.8,3.8H24.8c-2.1,0-3.8-1.7-3.8-3.8V54.3
		C20.9,52.2,22.7,50.5,24.8,50.5z"/>
	<path class="st2" d="M278,51.5c1.6,0,2.8,1.3,2.8,2.8V69c0,1.6-1.3,2.8-2.8,2.8H167.8c-1.6,0-2.8-1.3-2.8-2.8V54.3
		c0-1.6,1.3-2.8,2.8-2.8H278 M278,50.5H167.8c-2.1,0-3.8,1.7-3.8,3.8V69c0,2.1,1.7,3.8,3.8,3.8H278c2.1,0,3.8-1.7,3.8-3.8V54.3
		C281.8,52.2,280.1,50.5,278,50.5z"/>
	<path class="st2" d="M40.5,82.8c10.3,0,18.6,8.3,18.6,18.6S50.8,120,40.5,120s-18.6-8.3-18.6-18.6C22,91.1,30.3,82.8,40.5,82.8
		 M40.5,81.8c-10.8,0-19.6,8.8-19.6,19.6S29.7,121,40.5,121s19.6-8.8,19.6-19.6S51.3,81.8,40.5,81.8L40.5,81.8z"/>
	<path class="st4" d="M54.7,109.1c-4.3,7.8-14.1,10.8-21.9,6.5c-2.8-1.5-5-3.7-6.5-6.5C34.9,103.3,46.1,103.3,54.7,109.1z"/>
	<circle class="st4" cx="40.5" cy="95.9" r="7.2"/>
	<path class="st4" d="M271.8,111.5H81.2c-5.6,0-10.1-4.5-10.1-10.1l0,0c0-5.6,4.5-10.1,10.1-10.1l0,0h190.6c5.6,0,10.1,4.5,10.1,10
		l0,0l0,0C281.8,107,277.3,111.5,271.8,111.5L271.8,111.5z"/>
	<path class="st2" d="M40.5,136.2c10.3,0,18.6,8.3,18.6,18.6c0,10.3-8.3,18.6-18.6,18.6s-18.6-8.3-18.6-18.6l0,0
		C22,144.5,30.3,136.2,40.5,136.2 M40.5,135.2c-10.8,0-19.6,8.8-19.6,19.6c0,10.8,8.8,19.6,19.6,19.6s19.6-8.8,19.6-19.6l0,0
		C60.1,144,51.3,135.2,40.5,135.2z"/>
	<path class="st4" d="M54.7,162.4c-4.3,7.8-14.1,10.8-21.9,6.5c-2.8-1.5-5-3.7-6.5-6.5C34.9,156.7,46.1,156.7,54.7,162.4z"/>
	<circle class="st4" cx="40.5" cy="149.2" r="7.2"/>
	<path class="st4" d="M81.2,144.7h190.6c5.6,0,10.1,4.5,10.1,10.1l0,0l0,0c0,5.6-4.5,10.1-10.1,10.1l0,0H81.2
		c-5.6,0-10.1-4.5-10.1-10.1l0,0l0,0C71.1,149.2,75.6,144.7,81.2,144.7L81.2,144.7L81.2,144.7z"/>
	<path class="st5" d="M224.8,164.5c0,6.1,0.6,12.2,1.8,18.2c-11.4,6.8-18.4,19-18.4,32.2c0,3,0.3,5.9,1,8.8h82.3
		c3.5,0,6.3-2.8,6.3-6.3v-144C255.2,83,224.9,120.8,224.8,164.5z"/>
</g>
<g id="freepik--Character--inject-32">
	<circle class="st2" cx="318" cy="168.4" r="83.2"/>
	<circle class="st3" cx="318.4" cy="168.3" r="75.8"/>
	<path class="st6" d="M292.8,117.4l-4.8,6.2c0,0-4.2,3.2-5.9,6c-1.9,1.9-3.6,3.8-5.3,5.8c-1.9,2.3-3.8,4.7-5.4,7.2
		c-1.8,2.7-3.4,5.6-4.5,8.6c-0.7,1.9-1.1,3.9-1.2,6c0,1.5,0.2,2.9,0.8,4.2c0.7,1.7,1.8,3.1,3.2,4.2l1.1,0.8l1.6,0.3
		c3.1,0.6,6.3,0.9,9.5,0.9l1.3-0.1l-1.3-12.7c-1.1,0-3.4,0.2-4.4,0.2c0-0.2,0.1-0.4,0.1-0.6c0.6-2.4,1.5-4.8,2.6-7
		c1.1-2.4,2.4-4.9,3.8-7.3c1.2-2.1,2.5-4.3,3.7-6.4l6-3.8l3.5-6.2L292.8,117.4z M277.2,157c0-0.1,0-0.2,0-0.3
		C277.2,156.7,277.3,156.8,277.2,157C277.3,157.1,277.2,157.1,277.2,157z"/>
	<path class="st6" d="M326.9,130.8c0.1-0.8-5.1-3.4-8.7-1.3c-3.1,1.9-3.5,4.4-2.4,7.4c0,0.2,0.1,0.4,0.1,0.6c0.1,0.5,0.1,1,0.2,1.5
		c0.2,3.2-0.6,6.2-4.2,7.9c0,0.2-0.5,0.4-0.6,0.6c-1.3,1.2-2.2,2.8-2.4,4.6c0,1.3,1.2,2.3,2.7,3.6l2,1.4l2.7-0.3
		c8.4-2.5,12.3-10.1,12.2-10.7C326.2,142.4,326.2,136.2,326.9,130.8z"/>
	<path class="st2" d="M345.1,149.1l-1.5-0.3c-2-0.3-10.9-2.3-15.2-2.7l0,0c-1,2.1-4.3,7.3-12.7,9.8l-2.1,0.5l-2-1
		c-1.3-0.9-2-2.3-2.2-3.8c0.1-1.6,0.9-3,2.2-4c0.1-0.1,0.1-0.1,0.2-0.2c0-0.2,0-0.4,0-0.4c-0.6,0.1-8.6,1.3-9.3,1.4
		c-7.5,1.4-14.9,3.4-22.1,6.1l0.1,0.7l1.5,12.6l0.5,4.8c0,0,4-0.5,9.2-1.4c-1.4,12.7-1.7,31.2,2.7,54.9l17.1-0.3l29.7-0.5
		c0.1-2-0.1-6.1-0.3-11.8l-0.3-8.7c-0.2-7.7-0.1-17,0.6-26.9c0.1-1.6,0.2-3.1,0.4-4.8l0,0c6.1,6.5,12.1,12.8,12.1,12.8l2.9-2.8
		c3.7-1.8,6.6-4.9,9.1-8.8l3.4-3.2C368.9,171,353.3,150.4,345.1,149.1z"/>
	<path class="st7" d="M336.9,167.8c0.2,2.1,0.9,4.1,2,5.9l2.3,3.9c0.1-1.6,0.2-3.1,0.4-4.8C339.9,171.2,338.3,169.5,336.9,167.8z"/>
	<path class="st7" d="M341.5,172.9L341.5,172.9c-0.1,1.6-0.3,3.2-0.4,4.8l0,0C341.2,176.1,341.4,174.5,341.5,172.9z"/>
	<path class="st8" d="M315.8,137c0,0.2,0.1,0.4,0.1,0.6C315.9,137.4,315.8,137.2,315.8,137z"/>
	<path class="st9" d="M316,139.1c0-0.5-0.1-1-0.2-1.5C315.9,138.1,316,138.6,316,139.1z"/>
	<path class="st8" d="M322.3,134.6c-0.2,0.1-0.4,0.3-0.6,0.4c-1.7,1.2-3.8,1.8-5.9,1.9c0,0.2,0.1,0.4,0.1,0.6c0.1,0.5,0.1,1,0.2,1.5
		v0.1C318.6,138.6,320.9,136.9,322.3,134.6z"/>
	<path class="st3" d="M333.5,147.6c-0.2-0.8-0.8-1.5-1.7-1.7l-2.1-0.5c-0.5-0.1-1.1,0.1-1.4,0.6l-0.1,0.1c-1,2.1-4.3,7.3-12.7,9.8
		l-0.6,0.1l0,0l-1.4,0.3l-2-1c-1.3-0.9-2-2.3-2.2-3.8c0.1-1.6,0.9-3,2.2-4c0.1-0.1,0.2-0.2,0.3-0.4c0.1-0.2,0.1-0.3-0.1-0.4
		c-2.2-1.6-7.1,0.9-7.4,1.3c-0.2,0.2-0.4,0.4-0.6,0.7c-1.2,1.5-1.8,3.4-1.6,5.3c0.4,3.2,2.3,6.1,5.1,7.8h0.1c0.1,0,0.1,0,0.2,0
		c0.1-0.1,0.1-0.2,0.1-0.3c0-2.4,1.5-4.6,3.7-5.5l1.8,0.9c-7.5,30.9-2.4,67.9-2.3,68.9h0.6l0,0c0-0.4-5.3-37.7,2.3-68.7l1.8-0.4
		c2.1,2.6,1.1,6.5,1.1,6.5c0,0.1,0,0.2,0.1,0.3c0.1,0,0.1,0.1,0.2,0.1h0.1c0.4-0.2,9.9-4.3,13.2-8.3c1.6-1.9,2.7-4.1,3.2-6.5
		C333.5,148.3,333.6,148,333.5,147.6z"/>
	<path class="st10" d="M322.3,134.6c-0.2,0.1-0.4,0.3-0.6,0.4c-1.7,1.2-3.8,1.8-5.9,1.9c0,0.2,0.1,0.4,0.1,0.6
		c0.1,0.5,0.1,1,0.2,1.5v0.1C318.6,138.6,320.9,136.9,322.3,134.6z"/>
	<path class="st0" d="M309.9,112.6c3.9-5,1.4-8-0.2-7.7c-1.6,0.7-3.1,2.8-3.8,7.5c-0.2,1.1-0.2,2.2-0.1,3.3
		C307.4,115.6,309.9,112.6,309.9,112.6z"/>
	<path class="st6" d="M326.3,123.6c10.8-19.1-10.6-21.3-14.9-17c-1.5,1.4-2.7,3-3.7,4.7l-0.9,1.8c-0.4,0.8-0.7,1.7-1,2.6
		c-1.1,3.2-1.7,6.5-1.7,9.8c0,6.3,5.1,11.5,11.4,11.5c0.1,0,0.2,0,0.3,0l0,0c2.1-0.1,4.1-0.8,5.9-1.9c0.2-0.1,0.4-0.3,0.6-0.4
		c1.4-1,2.6-2.3,3.6-3.8C328.1,127.3,327.5,125.5,326.3,123.6z"/>
	<path class="st0" d="M306.2,112.5c-0.1,0.2-0.1,0.4,0.1,0.6c0.1,0.1,0.2,0.1,0.3,0.1c0.1,0,0.2,0,0.2-0.1c0,0,0.1,0,0.1-0.1
		c0.6-0.9,1.7-1.4,2.7-1.4c0.2,0,0.4-0.2,0.4-0.4s-0.2-0.4-0.4-0.4l0,0c-0.7,0-1.4,0.2-2,0.5C307.1,111.6,306.6,112,306.2,112.5z"/>
	<path class="st0" d="M317.1,124.5c-0.1-0.1-0.2-0.1-0.3,0c-1.4,1.2-3.2,1.6-5,1.2c-0.1,0-0.2,0.1-0.2,0.2c0,0.1,0.1,0.2,0.2,0.2
		c0.5,0.1,1,0.1,1.5,0.1c1.4,0,2.8-0.5,3.9-1.5C317.1,124.7,317.1,124.6,317.1,124.5L317.1,124.5z"/>
	<path class="st10" d="M311.7,117.4c-1.3,1.9-2.9,3.7-4.7,5.2c1,1.4,3.2,1.3,3.2,1.3L311.7,117.4z"/>
	<path class="st0" d="M308.2,117.6c0.5,0.1,1-0.4,1.1-1.1s-0.1-1.3-0.5-1.4s-1,0.4-1.1,1.1S307.7,117.5,308.2,117.6z"/>
	<path class="st0" d="M316,119.2c0.5,0.1,0.9-0.4,1.1-1.1s-0.1-1.3-0.5-1.4s-1,0.4-1.1,1.1S315.5,119.1,316,119.2z"/>
	<path class="st0" d="M333.2,108.3c4.2-3.6-5.4-11-5.4-11s1.1,2.6-1.2,3.4s-18-5.1-17.8,1.5c0,0.9,0.3,1.8,0.9,2.6
		c0.5,0.7,1,1.3,1.7,1.8c3.7,2.8,10.3,3.6,13.9,3.6c-0.6,1.4-1,2.9-1.2,4.3c-0.6,3.2,0.2,6.4,2.2,9c2,3.5,4.7,3.4,7,0.7
		C336.9,120.8,340.4,113.8,333.2,108.3z"/>
	<path class="st6" d="M331.3,122.3c-1.7-0.7-3.5,0.1-5,1.3c-0.8,0.6-1.5,1.4-2.1,2.3c-1.4,2.2-0.9,4.8,1.6,5h0.4h0.6
		c2-0.2,3.9-1.1,5.3-2.5c1.1-1,1.5-2.6,1.1-4C333,123.4,332.3,122.6,331.3,122.3z"/>
	<path class="st0" d="M294.4,226c0,0-0.3,2.3-0.7,6.3c15.3,5.2,31.9,5.3,47.3,0.4c0.1-4.8,0.2-7.6,0.2-7.6l-29.7,0.6h-0.6L294.4,226
		z"/>
	<path class="st6" d="M371.7,185.7c-0.1-0.9-0.3-1.7-0.6-2.5c-0.1-0.4-0.3-0.8-0.5-1.2l-0.3-0.5l-0.2-0.3c-1.4-2.5-3-4.8-4.6-7
		l-9.1,8.8c1.2,1.5,2.4,3,3.5,4.5c-0.2,0.5-0.5,1-0.8,1.5c-1.5,2-3.1,3.9-5,5.5c-3.9,3.5-8,6.8-12.3,9.9l-1.4,0.2l-5.6,0.8l-5.5,3.7
		l3.6,7.3l4.5-2.3c1.1-0.1,2.2-0.4,3.2-0.8c1.6-0.4,3-1.4,3.9-2.8c2.7-1.1,5.3-2.2,7.8-3.6c2.7-1.4,5.4-3,7.9-4.7
		c1.3-0.9,2.6-1.8,3.8-2.9c1.3-1.1,2.6-2.3,3.7-3.6c1.4-1.6,2.5-3.5,3.3-5.6C371.7,188.8,371.8,187.3,371.7,185.7z M360,187.3v-0.1
		c0-0.2,0.1-0.3,0.1-0.2C360.1,187.1,360.1,187.2,360,187.3L360,187.3z"/>
	<circle class="st0" cx="245.7" cy="210.9" r="27.5"/>
	<path class="st3" d="M260.8,208.3h-12.5v-12.5c0-1.4-1.2-2.6-2.6-2.6s-2.6,1.2-2.6,2.6v12.5h-12.5c-1.4,0-2.6,1.2-2.6,2.6
		s1.2,2.6,2.6,2.6h12.5V226c0,1.4,1.2,2.6,2.6,2.6s2.6-1.2,2.6-2.6v-12.5h12.5c1.4,0,2.6-1.2,2.6-2.6S262.2,208.3,260.8,208.3z"/>
	<path class="st0" d="M317.5,114c1,0.2,1.9,0.9,2.3,1.9c0.1,0.1,0.2,0.2,0.4,0.2c0.1,0,0.1,0,0.2,0c0.2-0.1,0.3-0.3,0.2-0.5l0,0
		c-0.5-1.2-1.6-2.1-2.9-2.3c-0.2,0-0.4,0.1-0.5,0.4S317.2,114,317.5,114L317.5,114L317.5,114z"/>
</g>
</svg>
